<svg width="19" height="19" viewBox="0 0 19 19" fill="none" xmlns="http://www.w3.org/2000/svg">
<g clip-path="url(#clip0_466_846)">
<path d="M10.6613 18.9999H6.73608V6.33987H10.5003V8.02449C10.7722 7.70777 11.0019 7.38795 11.2837 7.12206C11.9767 6.46755 12.8233 6.13038 13.7647 6.04113C14.5744 5.95693 15.3928 6.0351 16.172 6.27107C17.4794 6.68014 18.251 7.59993 18.635 8.88415C18.8902 9.73576 18.9818 10.6128 18.9874 11.4948C19.0041 13.9461 18.9979 16.398 18.9998 18.8493C18.9998 18.8797 18.9948 18.9113 18.9899 18.9596H15.0591V18.6882C15.0591 16.5926 15.064 14.4965 15.0504 12.4009C15.0473 11.9604 15.0058 11.5209 14.9265 11.0875C14.6875 9.78596 13.8427 9.33351 12.6202 9.48412C11.5222 9.61924 10.9214 10.2663 10.7542 11.46C10.6944 11.8963 10.664 12.3361 10.6632 12.7765C10.6539 14.7561 10.6588 16.7358 10.6588 18.7161L10.6613 18.9999Z" fill="#FFF6CF"/>
<path d="M4.23897 19.0009H0.329224V6.33154H4.23897V19.0009Z" fill="#FFF6CF"/>
<path d="M4.55767 2.27483C4.56511 3.53488 3.54324 4.57925 2.29717 4.58668C1.05111 4.59412 0.000741386 3.5479 0.00012207 2.2835C0.00877592 1.68511 0.252085 1.11409 0.677575 0.69359C1.10306 0.273086 1.67665 0.0367872 2.27463 0.0356487C2.87262 0.0345101 3.4471 0.268624 3.87418 0.687505C4.30127 1.10639 4.54675 1.67647 4.55767 2.27483Z" fill="#FFF6CF"/>
</g>
<defs>
<clipPath id="clip0_466_846">
<rect width="19" height="19" fill="white"/>
</clipPath>
</defs>
</svg>
