<svg width="17" height="17" viewBox="0 0 17 17" fill="none" xmlns="http://www.w3.org/2000/svg">
<g clip-path="url(#clip0_466_840)">
<path d="M16.9966 4.35901V12.6582C16.969 12.8307 16.9501 13.0069 16.9123 13.1781C16.4794 15.1041 15.3139 16.3389 13.4109 16.8676C13.1592 16.9356 12.9074 16.9608 12.6557 17.0061H4.35897C4.30611 16.996 4.252 16.9834 4.19788 16.9772C3.7346 16.9342 3.28164 16.8147 2.85746 16.6234C1.03248 15.7599 0.0495066 14.3148 0.0205586 12.2932C-0.0146824 9.7756 0.0104978 7.24794 0.013015 4.72532C0.000629298 3.91851 0.206774 3.12338 0.609593 2.42425C1.546 0.836912 2.94934 0.0237318 4.79194 0.0136614C7.27014 -0.000185281 9.74707 0.00736748 12.2253 0.0136614C12.5459 0.00841978 12.8661 0.0375374 13.1806 0.100517C15.105 0.524731 16.3346 1.69541 16.8632 3.59493C16.9299 3.83661 16.9551 4.09719 16.9966 4.35901ZM15.4863 8.52562C15.4863 7.292 15.4863 6.05838 15.4863 4.82477C15.4956 4.43726 15.4381 4.05105 15.3164 3.68304C14.8344 2.3311 13.6727 1.51918 12.2014 1.51792C9.73575 1.51792 7.27013 1.51037 4.80326 1.52421C4.42273 1.52255 4.0443 1.58075 3.68184 1.69667C2.32255 2.15361 1.512 3.3331 1.51074 4.79959C1.51074 7.27186 1.50319 9.74413 1.51074 12.2164C1.50947 12.5918 1.56681 12.9651 1.68067 13.3229C2.13377 14.6761 3.30679 15.4943 4.76425 15.4981C7.2521 15.5048 9.74036 15.5048 12.229 15.4981C12.7484 15.5113 13.263 15.3957 13.7269 15.1615C14.1907 14.9274 14.5894 14.582 14.8872 14.1562C15.2931 13.5897 15.5018 12.9055 15.4813 12.2088C15.4846 10.9761 15.4888 9.74623 15.4939 8.51933L15.4863 8.52562Z" fill="#FFF6CF"/>
<path d="M12.8831 8.51336C12.8816 9.37929 12.6235 10.2254 12.1413 10.9446C11.6592 11.6638 10.9747 12.224 10.1743 12.5542C9.37389 12.8844 8.4936 12.9699 7.64465 12.7999C6.79569 12.6299 6.0162 12.2119 5.40469 11.5989C4.79317 10.9859 4.37709 10.2053 4.20903 9.35585C4.04097 8.50639 4.12848 7.62616 4.4605 6.82642C4.79252 6.02668 5.35415 5.34335 6.07438 4.86277C6.79462 4.3822 7.64115 4.12597 8.50696 4.12647C9.66759 4.13211 10.7789 4.59643 11.5987 5.4182C12.4184 6.23997 12.8801 7.35254 12.8831 8.51336ZM8.50946 5.63702C7.94226 5.63602 7.38751 5.80324 6.91531 6.11753C6.44311 6.43182 6.07468 6.87906 5.85659 7.40274C5.63849 7.92641 5.58055 8.503 5.69004 9.05961C5.79954 9.61623 6.07156 10.1279 6.47175 10.5299C6.87195 10.9319 7.38233 11.2062 7.93837 11.3182C8.49442 11.4301 9.07117 11.3747 9.59572 11.1589C10.1203 10.943 10.5691 10.5765 10.8854 10.1056C11.2017 9.63475 11.3713 9.08064 11.3728 8.51336C11.3748 7.75172 11.0743 7.02047 10.5374 6.48038C10.0004 5.94029 9.27098 5.63557 8.50946 5.63324V5.63702Z" fill="#FFF6CF"/>
<path d="M13.0651 2.84961C13.2834 2.85011 13.4966 2.91544 13.6778 3.0373C13.859 3.15917 13.9999 3.33208 14.0827 3.53413C14.1655 3.73618 14.1864 3.95827 14.1429 4.17224C14.0993 4.38621 13.9933 4.58244 13.8381 4.73604C13.6829 4.88965 13.4856 4.99372 13.2713 5.03507C13.0569 5.07641 12.8351 5.05317 12.6339 4.96828C12.4327 4.88339 12.2613 4.74069 12.1413 4.55825C12.0214 4.37581 11.9583 4.16185 11.96 3.9435C11.9643 3.65276 12.0824 3.3753 12.2891 3.17075C12.4957 2.9662 12.7743 2.8509 13.0651 2.84961Z" fill="#FFF6CF"/>
</g>
<defs>
<clipPath id="clip0_466_840">
<rect width="17" height="17" fill="white"/>
</clipPath>
</defs>
</svg>
