<svg width="20" height="17" viewBox="0 0 20 17" fill="none" xmlns="http://www.w3.org/2000/svg">
<g clip-path="url(#clip0_466_838)">
<path d="M5.84075 13.3683C3.82968 12.9414 2.3906 11.8032 2.1046 10.3658L3.71982 10.2903C1.76685 9.53147 0.693661 8.15838 0.554747 6.03676L2.26712 6.53268C0.495741 4.4325 0.123484 2.62781 1.16216 0.807285C3.41566 3.51058 6.25386 5.00205 9.7485 5.2584C9.50699 3.78557 9.77211 2.50477 10.7182 1.41133C12.2254 -0.330895 14.921 -0.4875 16.5925 1.09439C16.8159 1.30693 17.0084 1.35727 17.2689 1.26032C17.9862 0.992787 18.7035 0.723389 19.4398 0.446535C19.1529 1.33489 18.5764 2.03123 17.8409 2.6651C18.1896 2.58773 18.5419 2.52248 18.886 2.42833C19.2301 2.33418 19.5696 2.21113 19.9101 2.10021L20.0009 2.19342C19.4888 2.73315 19.0158 3.32042 18.452 3.79583C18.077 4.1109 18.0071 4.43436 17.9853 4.88926C17.7629 9.52774 15.8598 13.2294 11.8422 15.4685C8.01617 17.6013 4.08299 17.4512 0.240605 15.3203C0.147554 15.27 0.0656354 15.2005 0 15.1161C1.51534 15.1497 2.97168 14.9362 4.32995 14.2483C4.84838 13.99 5.33776 13.6647 5.84075 13.3683Z" fill="#FFF6CF"/>
</g>
<defs>
<clipPath id="clip0_466_838">
<rect width="20" height="17" fill="white"/>
</clipPath>
</defs>
</svg>
