<svg width="19" height="17" viewBox="0 0 19 17" fill="none" xmlns="http://www.w3.org/2000/svg">
<g clip-path="url(#clip0_466_844)">
<path d="M19.0002 1.31975C18.8897 1.85528 18.7758 2.39027 18.6687 2.92633C17.8564 7.01109 17.0441 11.0962 16.2319 15.1817C16.1709 15.4862 16.1159 15.7928 16.0426 16.0935C15.7686 17.2141 15.008 17.1465 14.4178 16.6919C13.2033 15.756 12.0032 14.7978 10.7972 13.8487C10.6178 13.7076 10.433 13.5735 10.2606 13.4228C10.1615 13.3371 10.103 13.3478 10.0128 13.4399C9.31465 14.1633 8.61055 14.8804 7.90991 15.6017C7.7013 15.8146 7.46396 15.9482 7.14733 15.9354C7.16566 15.6427 7.18251 15.36 7.20134 15.0779C7.28359 13.8397 7.36337 12.6015 7.45355 11.3638C7.46529 11.2566 7.51156 11.1571 7.58436 11.0827C10.2062 8.54562 12.8304 6.01137 15.4569 3.47995C15.4891 3.44855 15.5322 3.42672 15.551 3.3852C15.5932 3.2979 15.6234 3.20368 15.6581 3.11265C15.5679 3.0871 15.4693 3.02428 15.3885 3.04398C15.2393 3.08276 15.097 3.14711 14.9668 3.23455C11.6985 5.42669 8.43216 7.62238 5.1678 9.82162C5.11642 9.86036 5.05694 9.8849 4.99463 9.89307C4.93232 9.90124 4.86909 9.89279 4.81054 9.86846C3.44544 9.40693 2.07736 8.95551 0.71275 8.49132C0.530946 8.4299 0.359355 8.33791 0.204365 8.21877C-0.0433855 8.02447 -0.0765873 7.74446 0.145397 7.52088C0.331409 7.32833 0.548961 7.17438 0.787075 7.0668C2.14624 6.48922 3.51233 5.93347 4.87942 5.37186C9.14437 3.618 13.409 1.86628 17.6733 0.116686C17.8104 0.0578308 17.9548 0.0205377 18.1019 0.00596046C18.5478 -0.0297057 18.8451 0.206651 18.9601 0.673506C18.971 0.718222 18.9868 0.760806 19.0002 0.804457V1.31975Z" fill="#FFF6CF"/>
</g>
<defs>
<clipPath id="clip0_466_844">
<rect width="19" height="17" fill="white"/>
</clipPath>
</defs>
</svg>
