<svg width="16" height="16" viewBox="0 0 16 16" fill="none" xmlns="http://www.w3.org/2000/svg">
<path d="M5.29761 13.2079C5.27971 13.2079 5.25585 13.2198 5.23795 13.2198C4.08045 12.647 3.13774 11.6984 2.55899 10.5409C2.55899 10.523 2.57092 10.4991 2.57092 10.4812C3.29884 10.696 4.05061 10.8571 4.79643 10.9824C4.92769 11.7342 5.08282 12.48 5.29761 13.2079Z" fill="white"/>
<path d="M13.2271 10.5468C12.6364 11.7342 11.652 12.6948 10.4527 13.2735C10.6794 12.5158 10.8704 11.7521 10.9956 10.9824C11.7474 10.8571 12.4873 10.696 13.2152 10.4812C13.2092 10.5051 13.2271 10.5289 13.2271 10.5468Z" fill="white"/>
<path d="M13.2749 5.33216C12.5231 5.10544 11.7653 4.92047 10.9956 4.78921C10.8704 4.01953 10.6854 3.25582 10.4527 2.51001C11.6878 3.10069 12.6842 4.0971 13.2749 5.33216Z" fill="white"/>
<path d="M5.29758 2.57552C5.08279 3.30343 4.92766 4.04327 4.80237 4.79505C4.03269 4.91438 3.26898 5.10531 2.51123 5.33204C3.08998 4.13277 4.05059 3.1483 5.23792 2.55762C5.25582 2.55762 5.27968 2.57552 5.29758 2.57552Z" fill="white"/>
<path d="M9.97522 4.66367C8.591 4.50854 7.19484 4.50854 5.81061 4.66367C5.95977 3.84626 6.1507 3.02885 6.41919 2.24127C6.43112 2.19354 6.42516 2.15774 6.43112 2.11001C6.90248 1.99665 7.38576 1.92505 7.89292 1.92505C8.3941 1.92505 8.88335 1.99665 9.34874 2.11001C9.35471 2.15774 9.35471 2.19354 9.36664 2.24127C9.63513 3.03482 9.82606 3.84626 9.97522 4.66367Z" fill="white"/>
<path d="M4.66474 9.97394C3.84136 9.82478 3.02992 9.63385 2.24234 9.36536C2.19461 9.35343 2.15881 9.35939 2.11108 9.35343C1.99771 8.88207 1.92612 8.39879 1.92612 7.89163C1.92612 7.39045 1.99771 6.9012 2.11108 6.43581C2.15881 6.42984 2.19461 6.42984 2.24234 6.41791C3.03589 6.15538 3.84136 5.95849 4.66474 5.80933C4.51558 7.19355 4.51558 8.58971 4.66474 9.97394Z" fill="white"/>
<path d="M13.8594 7.89163C13.8594 8.39879 13.7878 8.88207 13.6745 9.35343C13.6267 9.35939 13.5909 9.35343 13.5432 9.36536C12.7497 9.62788 11.9382 9.82478 11.1208 9.97394C11.2759 8.58971 11.2759 7.19355 11.1208 5.80933C11.9382 5.95849 12.7556 6.14942 13.5432 6.41791C13.5909 6.42984 13.6267 6.43581 13.6745 6.43581C13.7878 6.90716 13.8594 7.39045 13.8594 7.89163Z" fill="white"/>
<path d="M9.97522 11.1196C9.82606 11.943 9.63513 12.7544 9.36664 13.542C9.35471 13.5898 9.35471 13.6256 9.34874 13.6733C8.88335 13.7867 8.3941 13.8583 7.89292 13.8583C7.38576 13.8583 6.90248 13.7867 6.43112 13.6733C6.42516 13.6256 6.43112 13.5898 6.41919 13.542C6.15666 12.7485 5.95977 11.943 5.81061 11.1196C6.50272 11.1972 7.19484 11.2509 7.89292 11.2509C8.591 11.2509 9.28908 11.1972 9.97522 11.1196Z" fill="white"/>
<path d="M10.1389 10.1371C8.64664 10.3254 7.14041 10.3254 5.64814 10.1371C5.45986 8.64484 5.45986 7.13861 5.64814 5.64634C7.14041 5.45806 8.64664 5.45806 10.1389 5.64634C10.3272 7.13861 10.3272 8.64484 10.1389 10.1371Z" fill="white"/>
</svg>
