<svg width="75" height="14" viewBox="0 0 75 14" fill="none" xmlns="http://www.w3.org/2000/svg">
<path d="M66.0801 1.06565C66.3739 0.477872 67.2066 0.502363 67.476 1.06565L69.0924 4.32292L72.6681 4.83723C73.3048 4.93519 73.5497 5.7189 73.0844 6.18422L70.5129 8.70677L71.1251 12.2579C71.2231 12.8947 70.5374 13.3845 69.9741 13.0906L66.7903 11.4008L63.582 13.0906C63.0187 13.3845 62.333 12.8947 62.4309 12.2579L63.0432 8.70677L60.4717 6.18422C60.0063 5.7189 60.2512 4.93519 60.888 4.83723L64.4882 4.32292L66.0801 1.06565Z" fill="#FFD651"/>
<path d="M51.4505 1.06565C51.7444 0.477872 52.5771 0.502363 52.8465 1.06565L54.4629 4.32292L58.0386 4.83723C58.6753 4.93519 58.9202 5.7189 58.4549 6.18422L55.8834 8.70677L56.4956 12.2579C56.5936 12.8947 55.9079 13.3845 55.3446 13.0906L52.1608 11.4008L48.9525 13.0906C48.3892 13.3845 47.7034 12.8947 47.8014 12.2579L48.4137 8.70677L45.8421 6.18422C45.3768 5.7189 45.6217 4.93519 46.2585 4.83723L49.8586 4.32292L51.4505 1.06565Z" fill="#FFD651"/>
<path d="M36.8219 1.06565C37.1158 0.477872 37.9485 0.502363 38.2179 1.06565L39.8343 4.32292L43.4099 4.83723C44.0467 4.93519 44.2916 5.7189 43.8263 6.18422L41.2548 8.70677L41.867 12.2579C41.965 12.8947 41.2793 13.3845 40.716 13.0906L37.5322 11.4008L34.3239 13.0906C33.7606 13.3845 33.0748 12.8947 33.1728 12.2579L33.7851 8.70677L31.2135 6.18422C30.7482 5.7189 30.9931 4.93519 31.6299 4.83723L35.23 4.32292L36.8219 1.06565Z" fill="#FFD651"/>
<path d="M22.1925 1.06614C22.4864 0.47836 23.3191 0.502851 23.5885 1.06614L25.2048 4.32341L28.7805 4.83772C29.4173 4.93568 29.6622 5.71938 29.1968 6.18471L26.6253 8.70726L27.2376 12.2584C27.3355 12.8952 26.6498 13.385 26.0865 13.0911L22.9027 11.4012L19.6944 13.0911C19.1311 13.385 18.4454 12.8952 18.5434 12.2584L19.1556 8.70726L16.5841 6.18471C16.1188 5.71938 16.3637 4.93568 17.0004 4.83772L20.6006 4.32341L22.1925 1.06614Z" fill="#FFD651"/>
<path d="M7.56369 1.06565C7.85758 0.477872 8.69027 0.502363 8.95967 1.06565L10.5761 4.32292L14.1517 4.83723C14.7885 4.93519 15.0334 5.7189 14.5681 6.18422L11.9965 8.70677L12.6088 12.2579C12.7068 12.8947 12.021 13.3845 11.4577 13.0906L8.27393 11.4008L5.06564 13.0906C4.50235 13.3845 3.81661 12.8947 3.91457 12.2579L4.52684 8.70677L1.95531 6.18422C1.48998 5.7189 1.73489 4.93519 2.37165 4.83723L5.97179 4.32292L7.56369 1.06565Z" fill="#FFD651"/>
</svg>
