<svg width="19" height="20" viewBox="0 0 19 20" fill="none" xmlns="http://www.w3.org/2000/svg">
<path d="M13.9523 11.9684C13.7518 12.1611 13.6593 12.4387 13.7056 12.7163L14.384 16.5096C14.438 16.8257 14.2992 17.1495 14.0371 17.3423C13.7672 17.535 13.4203 17.5582 13.135 17.404L9.71947 15.6229C9.59611 15.5536 9.46504 15.5227 9.33397 15.515H9.11809C9.04099 15.5227 8.9716 15.5458 8.90991 15.5844L5.49437 17.3731C5.32475 17.4579 5.132 17.4811 4.94696 17.4579C4.48435 17.3654 4.18366 16.9336 4.26076 16.471L4.94696 12.6777C4.98551 12.4009 4.9007 12.1149 4.70024 11.9221L1.91614 9.22361C1.67713 8.99231 1.60003 8.65307 1.70797 8.35238C1.8082 8.04398 2.07497 7.82039 2.38645 7.77413L6.21834 7.21129C6.50361 7.18045 6.76575 7.00312 6.89682 6.74175L8.57761 3.27995C8.61616 3.20285 8.66242 3.12574 8.73181 3.07177L8.8012 3.0178C8.83204 2.97154 8.8783 2.9407 8.92456 2.91757L9.00166 2.88673L9.13274 2.83276H9.45656C9.74183 2.85589 9.99626 3.03322 10.135 3.29537L11.839 6.74175C11.9623 6.98847 12.2013 7.1658 12.4789 7.21129L16.3108 7.76642C16.6346 7.81268 16.9045 8.03627 17.0124 8.34467C17.1126 8.65307 17.0201 8.99231 16.7888 9.20819L13.9052 11.9375L13.9523 11.9684Z" fill="#FFD689"/>
</svg>
